<svg width="155" height="50" viewBox="0 0 155 50" fill="none" xmlns="http://www.w3.org/2000/svg">
<path d="M39.6035 14.2804C39.1951 14.038 38.7235 14.0683 38.3421 14.3587L34.4519 17.3182C33.9036 17.7348 33.5764 18.4317 33.5764 19.1868V28.1636C33.5764 31.2695 31.7757 33.9638 29.1966 34.7138L14.895 38.8726V21.5099C14.895 18.7171 16.5129 16.2955 18.8326 15.6213L39.4004 9.64179C39.9126 9.4928 40.2714 8.9701 40.2714 8.37165C40.2714 8.01561 40.1405 7.67219 39.9149 7.42473C39.687 7.17726 39.3823 7.05101 39.0777 7.06111L35.8352 7.17726C34.7972 7.21514 33.7615 7.3818 32.7551 7.67471L15.2763 12.7553C11.1131 13.9648 8.20679 18.2853 8.20679 23.2598V39.8423C8.20679 40.7033 8.71675 41.4508 9.44785 41.6629L13.6855 42.8876C13.8164 42.9255 13.954 42.9457 14.0917 42.9457C14.2293 42.9457 14.367 42.9255 14.4979 42.8876L32.8792 37.5444C37.2342 36.2793 40.2759 31.7594 40.2759 26.5526V15.5279C40.2759 15.0026 40.0209 14.5254 39.6103 14.283L39.6035 14.2804Z" fill="#9E28B5"/>
<path d="M50.5699 29.6626L49.4959 33.6473H46.0254L51.802 16.0977H54.679L60.2728 33.6473H56.6895L55.5703 29.6626H50.5699ZM51.186 26.7512H54.9746L53.1017 20.1858H53.0566L51.1837 26.7512H51.186Z" fill="#959595"/>
<path d="M66.1646 33.8513C62.5113 33.8513 60.1826 31.1948 60.1826 26.8769C60.1826 22.5589 62.5113 19.9277 66.1646 19.9277C67.3063 19.9277 68.4932 20.208 69.4974 20.5666L68.5835 23.1978C67.6696 22.8922 67.3515 22.814 66.5527 22.814C64.7024 22.814 63.4703 24.3215 63.4703 26.8769C63.4703 29.4323 64.7024 30.9651 66.5527 30.9651C67.3515 30.9651 68.1503 30.6848 68.9265 30.3009L69.7027 33.0357C68.0826 33.7755 67.3063 33.8538 66.1646 33.8538V33.8513Z" fill="#959595"/>
<path d="M75.6191 33.8513C71.9659 33.8513 69.6372 31.1948 69.6372 26.8769C69.6372 22.5589 71.9659 19.9277 75.6191 19.9277C76.7609 19.9277 77.9478 20.208 78.952 20.5666L78.0381 23.1978C77.1242 22.8922 76.8061 22.814 76.0073 22.814C74.1569 22.814 72.9249 24.3215 72.9249 26.8769C72.9249 29.4323 74.1569 30.9651 76.0073 30.9651C76.8061 30.9651 77.6048 30.6848 78.3811 30.3009L79.1573 33.0357C77.5372 33.7755 76.7609 33.8538 75.6191 33.8538V33.8513Z" fill="#959595"/>
<path d="M86.0733 30.9651C87.1226 30.9651 88.0139 30.8363 89.018 30.402L89.7943 32.8538C87.8537 33.7982 86.5066 33.8513 85.4573 33.8513C81.2106 33.8513 79.27 31.0408 79.27 26.9021C79.27 22.7635 81.3482 19.9277 84.8165 19.9277C88.2847 19.9277 90.2275 22.9427 89.4964 27.6167H82.6254C82.7405 29.6091 83.6521 30.9625 86.0733 30.9625V30.9651ZM84.7488 22.4327C83.4693 22.4327 82.6931 23.7356 82.6254 25.4729H86.7345C86.7345 23.5816 86.0034 22.4327 84.7488 22.4327Z" fill="#959595"/>
<path d="M90.9927 33.6227V16.2246H94.2127V33.6227H90.9927Z" fill="#959595"/>
<path d="M102.056 30.9651C103.105 30.9651 103.997 30.8363 105.001 30.402L105.777 32.8538C103.837 33.7982 102.489 33.8513 101.44 33.8513C97.1935 33.8513 95.2529 31.0408 95.2529 26.9021C95.2529 22.7635 97.3311 19.9277 100.799 19.9277C104.268 19.9277 106.21 22.9427 105.479 27.6167H98.6083C98.7234 29.6091 99.635 30.9625 102.056 30.9625V30.9651ZM100.732 22.4327C99.4522 22.4327 98.676 23.7356 98.6083 25.4729H102.717C102.717 23.5816 101.986 22.4327 100.732 22.4327Z" fill="#959595"/>
<path d="M127.861 30.1217C127.861 30.9146 128.34 31.2454 128.911 31.2454C129.184 31.2454 129.709 31.1949 129.915 31.1166V33.6973C129.276 33.8261 128.112 33.9018 127.586 33.9018C125.325 33.9018 124.664 32.6241 124.664 30.4525V23.8619H123.249L123.66 21.1802H124.664V18.1147L127.859 17.2461V21.1802H130.073L129.685 23.8619H127.859V30.1217H127.861Z" fill="#959595"/>
<path d="M130.472 27.1571C130.472 23.4528 132.115 20.4883 135.951 20.4883C139.787 20.4883 141.43 23.4528 141.43 27.1571C141.43 30.8615 139.762 33.8512 135.951 33.8512C132.14 33.8512 130.472 30.8867 130.472 27.1571ZM133.442 27.1571C133.442 29.508 134.286 31.2706 135.953 31.2706C137.621 31.2706 138.397 29.508 138.397 27.1571C138.397 24.8062 137.621 23.0437 135.953 23.0437C134.286 23.0437 133.442 24.8315 133.442 27.1571Z" fill="#959595"/>
<path d="M142.246 33.6221V20.8223H145.466V23.3272H145.489C146.265 21.5141 147.75 20.85 149.187 20.85V23.6353C147.702 23.4055 145.694 24.7589 145.466 26.0114V33.6247H142.246V33.6221Z" fill="#959595"/>
<path d="M110.211 23.3272H110.188V20.8223H106.968V33.6221H110.188V26.0089C110.389 24.913 111.953 23.7388 113.334 23.6176V20.8854C112.088 21.047 110.883 21.754 110.211 23.3272Z" fill="#959595"/>
<path d="M114.602 20.7796V23.4083C116.919 22.527 119.381 22.2745 119.381 24.9638V25.5269C115.34 25.3981 112.921 27.2642 112.921 30.2261C112.921 32.2185 114.018 33.8547 115.958 33.8547C117.213 33.8547 118.355 33.3447 119.383 32.1175V33.625H122.603V24.8375C122.603 19.7191 118.174 19.4767 114.604 20.7822L114.602 20.7796ZM119.381 30.1479C118.833 30.7362 118.194 31.1175 117.373 31.1175C116.597 31.1175 115.936 30.6832 115.936 29.764C115.936 28.7691 116.94 27.2591 119.383 27.5419V30.1479H119.381Z" fill="#959595"/>
</svg>
